<svg width="95" height="95" viewBox="0 0 95 95" fill="none" xmlns="http://www.w3.org/2000/svg">
<rect width="95" height="95" rx="16" fill="#FFDECB"/>
<path d="M28.7218 64.2105H63.609L54.6692 52.1263C54.1362 52.0281 53.5911 51.9053 53.0338 51.7579C52.4766 51.6105 51.9315 51.4386 51.3985 51.2421L43.985 61.2632L37.4436 52.4211L28.7218 64.2105ZM25.8145 76C24.2155 76 22.8467 75.4228 21.708 74.2684C20.5693 73.114 20 71.7263 20 70.1053V28.8421C20 27.2211 20.5693 25.8333 21.708 24.6789C22.8467 23.5246 24.2155 22.9474 25.8145 22.9474H40.3509V28.8421H25.8145V70.1053H66.5163V54.4105L72.3308 60.3053V70.1053C72.3308 71.7263 71.7615 73.114 70.6228 74.2684C69.4841 75.4228 68.1153 76 66.5163 76H25.8145ZM73.9298 53.6L64.9173 44.4632C63.8997 45.1509 62.8095 45.6667 61.6466 46.0105C60.4837 46.3544 59.2481 46.5263 57.9398 46.5263C54.3542 46.5263 51.3016 45.2368 48.782 42.6579C46.2623 40.0789 45.0025 36.9474 45.0025 33.2632C45.0025 29.5789 46.2744 26.4474 48.8183 23.8684C51.3622 21.2895 54.4511 20 58.0852 20C61.7193 20 64.8083 21.2895 67.3521 23.8684C69.896 26.4474 71.1679 29.5789 71.1679 33.2632C71.1679 34.5895 70.9741 35.8667 70.5865 37.0947C70.1988 38.3228 69.7143 39.4526 69.1328 40.4842L78 49.4737L73.9298 53.6ZM58.0852 40.6316C60.1203 40.6316 61.8404 39.9193 63.2456 38.4947C64.6508 37.0702 65.3534 35.3263 65.3534 33.2632C65.3534 31.2 64.6508 29.4561 63.2456 28.0316C61.8404 26.607 60.1203 25.8947 58.0852 25.8947C56.0501 25.8947 54.33 26.607 52.9248 28.0316C51.5196 29.4561 50.817 31.2 50.817 33.2632C50.817 35.3263 51.5196 37.0702 52.9248 38.4947C54.33 39.9193 56.0501 40.6316 58.0852 40.6316Z" fill="#FF8B49"/>
</svg>
