<svg width="377" height="226" viewBox="0 0 377 226" fill="none" xmlns="http://www.w3.org/2000/svg">
<path d="M62.834 235C49.7437 235 38.617 230.43 29.4538 221.292C20.2906 212.153 15.709 201.055 15.709 188C15.709 174.944 20.2906 163.847 29.4538 154.708C38.617 145.569 49.7437 141 62.834 141V109.667C62.834 101.05 65.9102 93.6735 72.0626 87.5374C78.2151 81.4013 85.6111 78.3333 94.2506 78.3333H141.376C141.376 65.2777 145.957 54.1805 155.12 45.0416C164.284 35.9027 175.41 31.3333 188.501 31.3333C201.591 31.3333 212.718 35.9027 221.881 45.0416C231.044 54.1805 235.626 65.2777 235.626 78.3333H282.751C291.39 78.3333 298.786 81.4013 304.939 87.5374C311.091 93.6735 314.167 101.05 314.167 109.667V141C327.258 141 338.384 145.569 347.547 154.708C356.711 163.847 361.292 174.944 361.292 188C361.292 201.055 356.711 212.153 347.547 221.292C338.384 230.43 327.258 235 314.167 235V297.667C314.167 306.283 311.091 313.66 304.939 319.796C298.786 325.932 291.39 329 282.751 329H94.2506C85.6111 329 78.2151 325.932 72.0626 319.796C65.9102 313.66 62.834 306.283 62.834 297.667V235ZM141.376 203.667C147.921 203.667 153.484 201.382 158.066 196.812C162.647 192.243 164.938 186.694 164.938 180.167C164.938 173.639 162.647 168.09 158.066 163.521C153.484 158.951 147.921 156.667 141.376 156.667C134.831 156.667 129.267 158.951 124.686 163.521C120.104 168.09 117.813 173.639 117.813 180.167C117.813 186.694 120.104 192.243 124.686 196.812C129.267 201.382 134.831 203.667 141.376 203.667ZM235.626 203.667C242.171 203.667 247.734 201.382 252.316 196.812C256.897 192.243 259.188 186.694 259.188 180.167C259.188 173.639 256.897 168.09 252.316 163.521C247.734 158.951 242.171 156.667 235.626 156.667C229.08 156.667 223.517 158.951 218.936 163.521C214.354 168.09 212.063 173.639 212.063 180.167C212.063 186.694 214.354 192.243 218.936 196.812C223.517 201.382 229.08 203.667 235.626 203.667ZM125.667 266.333H251.334V235H125.667V266.333ZM94.2506 297.667H282.751V109.667H94.2506V297.667Z" fill="#FFDECB"/>
</svg>
